<svg width="85" height="85" viewBox="0 0 85 85" fill="none" xmlns="http://www.w3.org/2000/svg">
<path opacity="0.34" d="M83.3951 40.5603C54.0749 34.9308 50.0699 30.9258 44.4438 1.60501C44.3569 1.15335 44.1155 0.746056 43.7609 0.453142C43.4063 0.160229 42.9607 0 42.5008 0C42.0409 0 41.5953 0.160229 41.2407 0.453142C40.8861 0.746056 40.6447 1.15335 40.5578 1.60501C34.9317 30.9258 30.9266 34.9308 1.60494 40.5603C1.1534 40.6467 0.746118 40.8879 0.453187 41.2422C0.160256 41.5965 0 42.0419 0 42.5017C0 42.9614 0.160256 43.4068 0.453187 43.7611C0.746118 44.1155 1.1534 44.3566 1.60494 44.4431C30.9265 50.0708 34.9317 54.0728 40.5578 83.3967C40.6451 83.848 40.8867 84.2549 41.2413 84.5474C41.5958 84.84 42.0411 85 42.5008 85C42.9605 85 43.4058 84.84 43.7603 84.5474C44.1149 84.2549 44.3565 83.848 44.4438 83.3967C50.0699 54.0728 54.0749 50.0709 83.3951 44.4431C83.8466 44.3566 84.2539 44.1155 84.5468 43.7611C84.8397 43.4068 85 42.9614 85 42.5017C85 42.0419 84.8397 41.5965 84.5468 41.2422C84.2539 40.8879 83.8466 40.6467 83.3951 40.5603Z" fill="#EABD32"/>
</svg>
